<?xml version="1.0" standalone="no"?><!DOCTYPE svg PUBLIC "-//W3C//DTD SVG 1.1//EN" "http://www.w3.org/Graphics/SVG/1.1/DTD/svg11.dtd"><svg t="1657940664201" class="icon" viewBox="0 0 1024 1024" version="1.1" xmlns="http://www.w3.org/2000/svg" p-id="950" xmlns:xlink="http://www.w3.org/1999/xlink" width="200" height="200"><defs><style type="text/css">@font-face { font-family: feedback-iconfont; src: url("//at.alicdn.com/t/font_1031158_u69w8yhxdu.woff2?t=1630033759944") format("woff2"), url("//at.alicdn.com/t/font_1031158_u69w8yhxdu.woff?t=1630033759944") format("woff"), url("//at.alicdn.com/t/font_1031158_u69w8yhxdu.ttf?t=1630033759944") format("truetype"); }
</style></defs><path d="M129.186559 359.082271A189.997683 189.997683 0 1 1 319.184241 548.783314 190.146002 190.146002 0 0 1 129.186559 359.082271zM505.028969 715.198146A189.997683 189.997683 0 1 1 695.026651 904.750869a190.146002 190.146002 0 0 1-189.997682-189.552723z" fill="#FFDA6A" p-id="951"></path><path d="M687.61066 926.702202a210.169177 210.169177 0 1 1 12.458865 0 116.431054 116.431054 0 0 1-12.458865 0z m0-27.142526h10.975667a183.026651 183.026651 0 1 0-10.975667 0zM400.463499 889.918888a14.831981 14.831981 0 0 1-9.047508-3.707996 16.611819 16.611819 0 0 1-2.224797-23.137891l16.166859-19.429896h-2.224797a220.254925 220.254925 0 0 1-29.663963 1.928158c-136.15759 1.483198-245.024334-110.646582-219.068366-265.640788a16.611819 16.611819 0 0 1 18.984936-13.497103 16.760139 16.760139 0 0 1 13.645423 18.984936C163.151796 728.546929 270.683662 827.921205 399.276941 811.606025h2.373117l-19.133256-13.793742a16.463499 16.463499 0 1 1 19.281576-26.697567l52.653534 37.673233a16.463499 16.463499 0 0 1 3.114716 23.87949L415.295481 884.282735a16.01854 16.01854 0 0 1-11.123986 5.932792z m292.783314-34.855157a16.463499 16.463499 0 0 1-16.463499-16.463499v-24.769409h-33.816918a16.463499 16.463499 0 1 1 0-32.926999h33.668598v-11.568946h-33.668598a16.463499 16.463499 0 1 1 0-32.926999h33.668598v-14.090382l-63.332561-74.159907a16.760139 16.760139 0 0 1 1.928158-23.286211 16.463499 16.463499 0 0 1 23.286211 1.928158l55.323291 65.260718 54.730011-65.260718a16.463499 16.463499 0 0 1 25.214369 21.209733l-64.22248 76.533024v12.310545h33.816918a16.463499 16.463499 0 1 1 0 32.926999h-33.816918v11.568945h33.816918a16.463499 16.463499 0 1 1 0 32.926999h-33.816918v25.066049a16.463499 16.463499 0 0 1-16.463499 16.01854z m-132.449594-161.668598a13.348783 13.348783 0 0 1-13.348783-13.645423c0-54.285052 56.658169-109.163384 108.570104-105.307068a13.645423 13.645423 0 1 1-2.224797 27.142526c-34.706837-2.669757-78.757822 38.563152-79.202781 78.312862a13.645423 13.645423 0 0 1-13.793743 13.497103zM311.471611 569.103129a200.973349 200.973349 0 1 1 12.310544 0c-3.707995 0.14832-7.71263 0.14832-12.310544 0z m0-24.02781a90.326767 90.326767 0 0 0 10.975666 0 179.763615 179.763615 0 1 0-10.975666 0z m512-44.495945h-3.411356a16.611819 16.611819 0 0 1-13.497103-18.984936c24.02781-143.128621-83.800695-242.502897-212.245655-226.039397h-2.669757l19.281576 13.793742a16.463499 16.463499 0 0 1-10.085747 29.663963 14.831981 14.831981 0 0 1-9.195829-3.114716l-51.763615-38.118192a16.463499 16.463499 0 0 1-3.114716-23.87949l43.012746-52.060255a16.463499 16.463499 0 0 1 23.286211-2.076478 16.31518 16.31518 0 0 1 2.076478 23.137891L589.274623 222.479722h2.076478c148.319815-18.688297 276.468134 98.187717 248.584009 264.30591a16.31518 16.31518 0 0 1-15.57358 13.200463z m-504.28737-18.539977a11.420626 11.420626 0 0 1-11.568946-11.420625v-8.60255l-22.099652-5.339513a109.904983 109.904983 0 0 1-22.099652-11.717265 12.755504 12.755504 0 1 1 13.942062-21.506373 74.159907 74.159907 0 0 0 16.01854 8.157589l14.831982 4.004635v-62.146002l-13.497103-5.932792a78.461182 78.461182 0 0 1-13.497104-8.30591 50.280417 50.280417 0 0 1 21.358054-89.881808l5.636153-1.186558v-11.568946a11.568946 11.568946 0 0 1 22.989571 0v11.568946l21.061414 5.784473a84.838934 84.838934 0 0 1 21.951332 13.793742 12.755504 12.755504 0 0 1 1.483198 17.946698 12.903824 12.903824 0 0 1-18.095017 1.483198 57.399768 57.399768 0 0 0-13.942063-9.047509l-12.755504-4.004635v60.662805a143.425261 143.425261 0 0 1 32.33372 14.831981A43.161066 43.161066 0 0 1 385.631518 406.544612a53.543453 53.543453 0 0 1-45.682503 54.136732l-8.30591 1.186559v8.157589a11.420626 11.420626 0 0 1-12.013905 11.420626z m11.420626-45.237543h3.114716a28.180765 28.180765 0 0 0 25.214368-29.663963 17.501738 17.501738 0 0 0-9.640788-15.87022 74.159907 74.159907 0 0 0-9.789107-5.339513l-8.899189-3.411356z m-22.544612-91.216686v-51.318656l-9.047509 3.559676a22.247972 22.247972 0 0 0-12.755504 19.726535 25.066049 25.066049 0 0 0 10.382387 21.506373l11.272306 6.526072z m-121.770568-12.458864a11.865585 11.865585 0 0 1-11.865585-12.162225c0-53.395133 56.06489-107.531866 106.938586-103.82387a12.013905 12.013905 0 0 1-1.928157 24.02781c-35.596756-2.818076-80.537659 39.304751-80.982619 79.94438a11.865585 11.865585 0 0 1-12.162225 12.013905z" fill="#333333" p-id="952"></path></svg>