<?xml version="1.0" standalone="no"?><!DOCTYPE svg PUBLIC "-//W3C//DTD SVG 1.1//EN"
        "http://www.w3.org/Graphics/SVG/1.1/DTD/svg11.dtd">
<svg t="1657963398029" class="icon" viewBox="0 0 1024 1024" version="1.1" xmlns="http://www.w3.org/2000/svg" p-id="818"
     xmlns:xlink="http://www.w3.org/1999/xlink" width="200" height="200">
    <defs>
        <style type="text/css">@font-face { font-family: feedback-iconfont; src:
            url("//at.alicdn.com/t/font_1031158_u69w8yhxdu.woff2?t=1630033759944") format("woff2"),
            url("//at.alicdn.com/t/font_1031158_u69w8yhxdu.woff?t=1630033759944") format("woff"),
            url("//at.alicdn.com/t/font_1031158_u69w8yhxdu.ttf?t=1630033759944") format("truetype"); }
        </style>
    </defs>
    <path d="M154.4 1024H2.4v-309.2h151.6V1024zM16 1010.4h124.4v-282H16v282z" fill="#4A555F" p-id="819"></path>
    <path d="M32 744h92.8v250.4H32z" fill="#71CDE1" p-id="820"></path>
    <path d="M394.4 1024H242.8V411.6h151.6V1024z m-138-13.6h124.4V425.2H256.4v585.2z" fill="#4A555F" p-id="821"></path>
    <path d="M272 440.8h92.8v553.6H272z" fill="#F68F6F" p-id="822"></path>
    <path d="M634.8 1024h-151.6V527.2h151.6V1024z m-138-13.6h124.4V540.8h-124.4v469.6z" fill="#4A555F"
          p-id="823"></path>
    <path d="M512.4 556.4h92.8v438h-92.8z" fill="#E0E0E0" p-id="824"></path>
    <path d="M875.2 1024h-151.6V199.6h151.6V1024z m-138.4-13.6h124.4V212.8h-124.4v797.6z" fill="#4A555F"
          p-id="825"></path>
    <path d="M752.8 228.8h92.8v766h-92.8z" fill="#FFD552" p-id="826"></path>
    <path d="M980.8 1020.8h-13.6v-13.6h13.6v13.6z m0-27.2h-13.6V980h13.6v13.6z m0-26.8h-13.6v-13.6h13.6v13.6z m0-27.2h-13.6v-13.6h13.6v13.6z m0-27.2h-13.6v-13.6h13.6v13.6z m0-27.2h-13.6V872h13.6v13.2z m0-26.8h-13.6v-13.6h13.6v13.6z m0-27.2h-13.6v-13.6h13.6v13.6z m0-27.2h-13.6v-13.6h13.6v13.6z m0-27.2h-13.6v-13.6h13.6v13.6z m0-26.8h-13.6v-13.6h13.6v13.6z m0-27.2h-13.6v-13.6h13.6v13.6z m0-27.2h-13.6v-13.6h13.6v13.6z m0-27.2h-13.6v-13.6h13.6v13.6z m0-26.8h-13.6V628h13.6v13.6z m0-27.2h-13.6v-13.6h13.6v13.6z m0-27.2h-13.6v-13.6h13.6v13.6z m0-27.2h-13.6v-13.6h13.6v13.6z m0-26.8h-13.6v-13.6h13.6v13.6z m0-27.2h-13.6v-13.6h13.6v13.6z m0-27.2h-13.6v-13.6h13.6v13.6z m0-27.2h-13.6v-13.6h13.6v13.6z m0-26.8h-13.6v-13.6h13.6v13.6z m0-27.2h-13.6V384h13.6v13.6z m0-27.2h-13.6v-13.6h13.6v13.6z m0-27.2h-13.6v-13.6h13.6v13.6z m0-27.2h-13.6v-13.6h13.6V316z m0-26.8h-13.6v-13.6h13.6v13.6z m0-27.2h-13.6v-13.6h13.6v13.6z m0-27.2h-13.6v-13.6h13.6v13.6z m0-27.2h-13.6v-13.6h13.6v13.6z m0-26.8h-13.6v-13.6h13.6v13.6z m0-27.2h-13.6V140h13.6v13.6z m0-27.2h-13.6v-13.6h13.6v13.6z m0-27.2h-13.6v-13.6h13.6v13.6z m0-26.8h-13.6v-4h13.6v4z"
          fill="#4A555F" p-id="827"></path>
    <path d="M1010.8 114l-36.8-44.8-37.2 44.8-10.4-8.8L974 48l47.6 57.2z" fill="#4A555F" p-id="828"></path>
    <path d="M665.2 0l36 36-230.8 217.2-151.2-131.6L5.6 380v76l312.4-257.6L472 332.4l270.8-254.8 39.6 40 0.4-117.6z"
          fill="#F68F6F" p-id="829"></path>
</svg>