<?xml version="1.0" standalone="no"?><!DOCTYPE svg PUBLIC "-//W3C//DTD SVG 1.1//EN" "http://www.w3.org/Graphics/SVG/1.1/DTD/svg11.dtd"><svg t="1657940670846" class="icon" viewBox="0 0 1024 1024" version="1.1" xmlns="http://www.w3.org/2000/svg" p-id="1093" xmlns:xlink="http://www.w3.org/1999/xlink" width="200" height="200"><defs><style type="text/css">@font-face { font-family: feedback-iconfont; src: url("//at.alicdn.com/t/font_1031158_u69w8yhxdu.woff2?t=1630033759944") format("woff2"), url("//at.alicdn.com/t/font_1031158_u69w8yhxdu.woff?t=1630033759944") format("woff"), url("//at.alicdn.com/t/font_1031158_u69w8yhxdu.ttf?t=1630033759944") format("truetype"); }
</style></defs><path d="M491.13 903.53h-2.38a377.36 377.36 0 0 1-74-746.91 26.39 26.39 0 0 1 10.62 51.71c-149 30.62-257.9 163.48-258.84 315.89a324.53 324.53 0 0 0 322.54 326.52h2c154 0 287.56-109 318.07-259.81a26.39 26.39 0 0 1 51.74 10.46 377 377 0 0 1-369.75 302.14z" fill="#142E4F" p-id="1094"></path><path d="M870.78 541.72H501.27a26.39 26.39 0 0 1-26.39-26.4V146.86a26.39 26.39 0 0 1 26.39-26.39h0.61a397.37 397.37 0 0 1 395.29 394.66 26.39 26.39 0 0 1-26.39 26.59z m-343.12-52.79h315.51C829 322.26 694.53 188.12 527.66 174.41z" fill="#FF9600" p-id="1095"></path></svg>